<svg id="Layer_1" data-name="Layer 1" xmlns="http://www.w3.org/2000/svg" xmlns:xlink="http://www.w3.org/1999/xlink" viewBox="0 0 249.97 399.91"><defs><style>.cls-1{fill:url(#linear-gradient);}</style><linearGradient id="linear-gradient" x1="500" y1="550.81" x2="500" y2="150.89" gradientUnits="userSpaceOnUse"><stop offset="0" stop-color="#fff"/><stop offset="0" stop-color="#d16e28"/><stop offset="1" stop-color="#b33525"/><stop offset="1"/></linearGradient></defs><path class="cls-1" d="M441.2,550.28a4.31,4.31,0,0,0,5.64-6.14c-13-20.21-25.28-54.2-5.69-98,32.66-73,52.53-110.83,52.53-110.83s10.57,44.13,39.23,83.37c27.58,37.77,42.67,85.26,18.34,124.83a4.31,4.31,0,0,0,5.62,6.11C587,534.22,620.78,503.31,624.6,441.8c1.4-18.8-.71-45.11-11.25-78.32-13.55-42.09-30.21-61.72-39.85-70.16a4.31,4.31,0,0,0-7.13,3.54c2.81,45.41-14.28,56.93-24,31-3.89-10.37-6.15-28.31-6.15-50.16,0-36.37-10.55-73.82-33.82-104.24a118.08,118.08,0,0,0-21.25-21.62,4.32,4.32,0,0,0-6.94,3.73c1.79,24.66.17,95.33-61.83,179.76C356.17,413.6,378,473.75,385.68,490,400.46,521.25,421.07,539.58,441.2,550.28Z" transform="translate(-375.01 -150.89)"/></svg>