<svg id="Layer_1" data-name="Layer 1" xmlns="http://www.w3.org/2000/svg" xmlns:xlink="http://www.w3.org/1999/xlink" viewBox="0 0 930.5 259.96"><defs><style>.cls-1{font-size:150px;fill:#fff;font-family:AlfaSlabOne-Regular, Alfa Slab One;letter-spacing:0.07em;}.cls-2{letter-spacing:-0.01em;}.cls-3{letter-spacing:0.1em;}.cls-4{letter-spacing:0.08em;}.cls-5{letter-spacing:0.1em;}.cls-6{fill:url(#linear-gradient);}</style><linearGradient id="linear-gradient" x1="243.98" y1="481.47" x2="243.98" y2="252.95" gradientUnits="userSpaceOnUse"><stop offset="0" stop-color="#fff"/><stop offset="0" stop-color="#d16e28"/><stop offset="1" stop-color="#b33525"/><stop offset="1"/></linearGradient></defs><text class="cls-1" transform="translate(173.9 210.91)">D<tspan class="cls-2" x="131.1" y="0">A</tspan><tspan class="cls-3" x="250.5" y="0">VI</tspan><tspan class="cls-4" x="461.4" y="0">D</tspan><tspan class="cls-5" x="594" y="0">’S</tspan></text><path class="cls-6" d="M210.38,481.17a2.46,2.46,0,0,0,3.22-3.51c-7.42-11.54-14.44-31-3.25-56,18.66-41.72,30-63.33,30-63.33s6,25.21,22.42,47.64c15.76,21.58,24.38,48.72,10.48,71.33a2.46,2.46,0,0,0,3.21,3.49c17.21-8.8,36.52-26.47,38.7-61.62.8-10.74-.4-25.78-6.42-44.75C301,350.38,291.49,339.16,286,334.34a2.47,2.47,0,0,0-4.08,2c1.61,25.95-8.15,32.53-13.71,17.69-2.22-5.92-3.51-16.18-3.51-28.66,0-20.79-6-42.19-19.33-59.57a67.53,67.53,0,0,0-12.14-12.35,2.46,2.46,0,0,0-4,2.13c1,14.09.09,54.47-35.34,102.72-32.12,44.75-19.67,79.12-15.26,88.43C187.1,464.58,198.88,475.06,210.38,481.17Z" transform="translate(-172.56 -252.95)"/></svg>